/* XPM */
static char *de9680e3608f499c8d800d661b0bf224NxY22gyxc8gwzZsH[] = {
/* columns rows colors chars-per-pixel */
"64 64 15 1 ",
"  c black",
". c #4E342E",
"X c #6D4C41",
"o c #795548",
"O c #797979",
"+ c #8D6E63",
"@ c #A1887F",
"# c #00838F",
"$ c #26C6DA",
"% c #4DD0E1",
"& c gray55",
"* c #ACACAC",
"= c #80DEEA",
"- c #B2EBF2",
"; c #CECECE",
/* pixels */
"                                                                ",
"                                                                ",
"                                                                ",
"                                                                ",
"                                                                ",
"                                                                ",
"                                                                ",
"                                                                ",
"                                                                ",
"                                                                ",
"                                                                ",
"                                                                ",
"                                                                ",
"                                                                ",
"                                                                ",
"                                                                ",
"                                                                ",
"                                                                ",
"                                                                ",
"                                                                ",
"                                                                ",
"                                                                ",
"                                                                ",
"                                                                ",
"                                                                ",
"                                                                ",
"                                                                ",
"                                                                ",
"                                                                ",
"                                                                ",
"                                                                ",
"                                                                ",
"                                                                ",
"                                                                ",
"      ..o                                                       ",
"      .Xo                                                       ",
"      .Xo                                                       ",
"      .@o                                                       ",
"      .+o                                                       ",
"      .@+                ##  ##  ##### ###             ..o      ",
"      .+o               #--##--##-----#$--##########   .Xo      ",
"      .@o &&&&&&&&&&&&##%---%=---%----%------------### .Xo      ",
"      .+o&;;;;******OO#-%---%=---%----%=-----------==##.@o      ",
"      .Xo&;;;;;;;***O#--%---%=---%----%=--=-----===%==#.Xo      ",
"      .+o&;;;;;;;;***#--%---%=---%=---%=--%=----=%%%%%#.+o      ",
"      +@o&&&&&&&&&&&&#--%-=%%=--=%=---%%---%=====%%%###.+o      ",
"      .@o............#--%==%%=--=%==--%%=--%%%%%%%##....@+      ",
"      .+o.@++@@@+@@XX#-=%==%%--==%==---%=====%%%##++@@X.Xo      ",
"      X+o.X@@@+@++@XX#-=%%=%---==%=====%%%%%=%##@@+@X+X.+o      ",
"      .Xo.XX+XX+XXXXX#-=-%%%--===%%%==%%%%%%%%#XXXXXXX+.Xo      ",
"      .Xo............#-==%---==###%%=%%%%%%%##..........+o      ",
"      .@o            #--=%---###  #%%%%%%%%%#          .+o      ",
"      .@o             #%%%%%#      ##%%%%%%#           .@o      ",
"      .+o             #%%%%##        ##%%%%#           .@o      ",
"      .+o             #%%##           #%%##            .Xo      ",
"      .Xo              ##              ##              .Xo      ",
"      .Xo                                              .+o      ",
"      .@o                                              .+o      ",
"      ...                                              .oo      ",
"                                                                ",
"                                                                ",
"                                                                ",
"                                                                ",
"                                                                "
};
