/* XPM */
static char *b610bea1e9e74287cced6341e7ebd72f0YazT5wTXK7nAKE9[] = {
/* columns rows colors chars-per-pixel */
"64 64 8 1 ",
"  c black",
". c #303030",
"X c #4C514D",
"o c #797979",
"O c #8B8B8B",
"+ c gray57",
"@ c #ACACAC",
"# c #CECECE",
/* pixels */
"                                                                ",
"                                                                ",
"                                                                ",
"                                                                ",
"                                                                ",
"                                                                ",
"                     .....................                      ",
"                     .OO@@@@XXX@@@@@XX###.                      ",
"                     ..OOO@@@X@@@@@@@@XX..                      ",
"                       .XXXXX@@@@XX@@@#.                        ",
"                        .OOX@@@@X@@@##.                         ",
"                         .O@XX@X@@@@#.                          ",
"                       .................                        ",
"                      .OOOO@@@@X@@@@@@@#.                       ",
"                      .OOOOOXXX@@@@@@@##.                       ",
"                       .................                        ",
"                       .OOOOO@@@@@XXX##.                        ",
"                       .................                        ",
"                      .OOXOOOO@@@@@@X@##.                       ",
"                     .OOOOXXOOO@@@XX@@@##.                      ",
"                      ...................                       ",
"                        .OOOOOOXX@@@@#.                         ",
"                        .XX.O@X.@@@.@#.                         ",
"                        .O.o.XXO.@.+.#.                         ",
"                        .O.XX@XO.@.+.#.                         ",
"                        .O.o.@XO.@.+.X.                         ",
"                        .O.o.@.O.@.XXXX                         ",
"                        .O.o.@.O.@.X.#.                         ",
"                         ....@.O.@.+.#.                         ",
"                            .@XO.@.+.#.                         ",
"                            .@XO.@.+.#.                         ",
"                            .@.XXX.+.#.                         ",
"                           ..@XX.@.+.#.                         ",
"                          .o.@XO.@.+.#.                         ",
"                        ...o.@XO.@.+XX.                         ",
"                        .O.o.@.O.@.X.#.                         ",
"                        .O.oXX.O.@.X.#.                         ",
"                        .XXo.@.O.@.+.#.                         ",
"                        .O.X.@.O.@.+...                         ",
"                        .O.o.@.OX@...                           ",
"                        .O.o.@.X.@..                            ",
"                        .O.o.@XO.@..                            ",
"                        .O.o.XXO.@.....                         ",
"                        .O.XX@.XX@.+.#.                         ",
"                        .OXo.@.O.X.+.#.                         ",
"                        .XO.@@@.@@X.##.                         ",
"                        .OOXO@@@@XX###.                         ",
"                        .OOOX@@@X@@###.                         ",
"                      ...................                       ",
"                     .OOOOOXOOO@@@@X@X###.                      ",
"                      .OOOXXOOOO@@@@X@@#.                       ",
"                       .................                        ",
"                       .OOOOXXXXOO@@@@#.                        ",
"                       .................                        ",
"                      .OOXXXOOOOO@XXX@@#.                       ",
"                      .OOOXOOOOO@@X@@@@#.                       ",
"                       .................                        ",
"                         .OOOOO@@@XX#.                          ",
"                        .OOOXX@@@@@X##.                         ",
"                       .OOOXX@@X@@@@@##.                        ",
"                     ..OOOOX@@XX@@@@@@#X..                      ",
"                     .OOXXX@@@@XXX@@@@X##.                      ",
"                     .....................                      ",
"                                                                "
};
