/* XPM */
static char *_0a121eaf8f14170f83e6db5443ebae9Dfbr2MnWLH5zIi1y[] = {
/* columns rows colors chars-per-pixel */
"64 64 8 1 ",
"  c black",
". c #303030",
"X c #4C514D",
"o c #797979",
"O c #8B8B8B",
"+ c gray57",
"@ c #ACACAC",
"# c #CECECE",
/* pixels */
"                                                                ",
"                                                                ",
"                                                                ",
"                                                                ",
"                                                                ",
"                                                                ",
"                                                                ",
"                                                                ",
"                                                                ",
"                                                                ",
"                                                                ",
"                                                                ",
"                                                                ",
"                                                                ",
"                                                                ",
"                                                                ",
"                                                                ",
"                                                                ",
"                                                                ",
"                                                                ",
"                                                                ",
"                                                                ",
"                                                                ",
"                                                                ",
"                                                                ",
"                                                                ",
"                        ......                                  ",
"                        .O.X..                                  ",
"                        .O.X.@..                                ",
"                        .O.XX@XO..                              ",
"                        .O.o.X.X.@.                             ",
"                         ....@.OX@.                             ",
"                           ..@.O.X.                             ",
"                            .@.O.X..                            ",
"                            .@XO.@..                            ",
"                           ..@XO.@...                           ",
"                          .o.XXO.@.+.                           ",
"                        ...oXX.O.@.+.                           ",
"                        .O.XX@.O.@.+.                           ",
"                        .XXoXXXO.@.+..                          ",
"                        .O.o.@XO.@.+.#.                         ",
"                        .O.o.@.O.@.+.#.                         ",
"                        .O.o.XXO.@.+.#.                         ",
"                        .O.XX@.XX@.+.#.                         ",
"                        .OXo.@.O.XX+.#.                         ",
"                        .XO.@@@.@@XX##.                         ",
"                        .OOOX@@@@XXXX#.                         ",
"                        .OOOX@@@@X@###.                         ",
"                      ...................                       ",
"                     .OOXOXOOXX@@@@@@X#XX.                      ",
"                      .OOXOXXOOO@@@@@XX#.                       ",
"                       .................                        ",
"                       .OOXXXOOOXO@@@X#.                        ",
"                       .................                        ",
"                      .OXXOOOXOXXX@@@@@X.                       ",
"                      .XXXXOOOXO@X@@@XX#.                       ",
"                       .................                        ",
"                         .OOXOOX@@X@#.                          ",
"                        .OOXOX@X@@XX##.                         ",
"                       .XOOXX@@@X@@X@##.                        ",
"                     ..OOOXX@X@X@@X@@@X#..                      ",
"                     .OOXXXXX@@X@@@@@X#XX.                      ",
"                     .....................                      ",
"                                                                "
};
