/* XPM */
static char *b118a77db61e4d2bf376fb3afa100ac2U27XyDTjT1iBZC54[] = {
/* columns rows colors chars-per-pixel */
"64 64 7 1 ",
"  c black",
". c #303030",
"X c #797979",
"o c #8B8B8B",
"O c gray57",
"+ c #ACACAC",
"@ c #CECECE",
/* pixels */
"                                                                ",
"                                                                ",
"                                                                ",
"                                                                ",
"                                                                ",
"                                                                ",
"                     .....................                      ",
"                     .oo++++++++++++++@@@.                      ",
"                     ..ooo++++++++++++@@..                      ",
"                       .oo++++++++++++@.                        ",
"                        .oo+++++++++@@.                         ",
"                         .o+++++++++@.                          ",
"                       .................                        ",
"                      .oooo++++++++++++@.                       ",
"                      .ooooo++++++++++@@.                       ",
"                       .................                        ",
"                       .ooooo++++++++@@.                        ",
"                       .................                        ",
"                      .ooooooo++++++++@@.                       ",
"                     .ooooooooo++++++++@@.                      ",
"                      ...................                       ",
"                        .oooooo++++++@.                         ",
"                        .oo.o++.+++.+@.                         ",
"                        .o.X.+.o.+.O.@.                         ",
"                        .o.X.+.o.+.O.@.                         ",
"                        .o.X.+.o.+.O.@.                         ",
"                        .o.X.+.o.+.O.@.                         ",
"                        .o.X.+.o.+.O.@.                         ",
"                        .o.X.+.o.+.O.@.                         ",
"                        .o.X.+.o.+.O.@.                         ",
"                        .o.X.+.o.+.O.@.                         ",
"                        .o.X.+.o.+.O.@.                         ",
"                        .o.X.+.o.+.O.@.                         ",
"                        .o.X.+.o.+.O.@.                         ",
"                        .o.X.+.o.+.O.@.                         ",
"                        .o.X.+.o.+.O.@.                         ",
"                        .o.X.+.o.+.O.@.                         ",
"                        .o.X.+.o.+.O.@.                         ",
"                        .o.X.+.o.+.O.@.                         ",
"                        .o.X.+.o.+.O.@.                         ",
"                        .o.X.+.o.+.O.@.                         ",
"                        .o.X.+.o.+.O.@.                         ",
"                        .o.X.+.o.+.O.@.                         ",
"                        .o.X.+.o.+.O.@.                         ",
"                        .o.X.+.o.+.O.@.                         ",
"                        .oo.+++.+++.@@.                         ",
"                        .oooo++++++@@@.                         ",
"                        .oooo++++++@@@.                         ",
"                      ...................                       ",
"                     .ooooooooo+++++++@@@.                      ",
"                      .ooooooooo+++++++@.                       ",
"                       .................                        ",
"                       .oooooooooo++++@.                        ",
"                       .................                        ",
"                      .oooooooooo++++++@.                       ",
"                      .ooooooooo+++++++@.                       ",
"                       .................                        ",
"                         .ooooo+++++@.                          ",
"                        .oooo+++++++@@.                         ",
"                       .oooo+++++++++@@.                        ",
"                     ..oooo+++++++++++@@..                      ",
"                     .oooo++++++++++++@@@.                      ",
"                     .....................                      ",
"                                                                "
};
