/* XPM */
static char *_c2a9b86e6cf42c7887856a3a8e0d63aske7vj2x6PyGrKub[] = {
/* columns rows colors chars-per-pixel */
"64 64 10 1 ",
"  c black",
". c #303030",
"X c #37474F",
"o c #546E7A",
"O c #607D8B",
"+ c #888B88",
"@ c #898B88",
"# c #90A4AE",
"$ c #B0BEC5",
"% c #CFD8DC",
/* pixels */
"                                                                ",
"                                                                ",
"                                                                ",
"                                                                ",
"                                                                ",
"                                                                ",
"                                                                ",
"                                                                ",
"                                                                ",
"                      ...................                       ",
"                    ...%%%%######$$$$$$$...                     ",
"                  ...%%$$$%$$$$$$$$$$$$$XX...                   ",
"                 ..%%$$$$%$$$$$$$$$$$$$###XX..                  ",
"                 .%$$$$$%$$$$$$X$$$$$$######X.                  ",
"                 .%$$$$%$$$$$$X$X$$$$#######X.                  ",
"                 .%$$%%$$$$$$$XXX$$$########X.                  ",
"                 .%$%%$$$$$$XX$$$XX########OX.                  ",
"                 .%%%$$$XXXX$X$$$X#XXXX###OOX.                  ",
"                 .%%$$$X$XXX$X$$$X#XXX#.#OOOX.                  ",
"                 .%$$$$$$$X$$$X$X###X###OOOOX.                  ",
"                 .%$$$$$$$$$$$$X#######OOOOOX.                  ",
"                 .%$$$$$$$$$$$X#X#####OOOOOOX.                  ",
"                 .%$$$$$$$$$$X###X###OOOOOOOX.                  ",
"                 .%$$$$$$$$$##XXX###OOOOOOOXX.                  ",
"                 .%$$$$$$$$###XXX##OOOOOOOXXX.                  ",
"                 .%$$$$$$$#####X##OOOOOOOXXXX.                  ",
"                 .%$$$$$$########OOOOOOOXXXXX.                  ",
"                 .%$$$$$########OOOOOOOXXXXXX.                  ",
"                 ..%%$$########OOOOOOOXXXXXX.                   ",
"                  ...%%#######OOOOOOOXXXXX..                    ",
"                    ...%%%#####$$$$XXXXX...                     ",
"                      ...................                       ",
"                          .OO##$$ooX.....                       ",
"                          .OO##$$ooX.                           ",
"                          .OO##$$ooX.                           ",
"                          .OO##$$ooX.                           ",
"                          .OO##$$ooX.                           ",
"                          .OO##$$ooX.                           ",
"                          .OO##$$ooX.                           ",
"                          .OO##$$ooX.                           ",
"                          .OO##$$ooX.                           ",
"                          .OO##$$ooX.                           ",
"                          .OO##$$ooX.                           ",
"                          .OO##$$ooX.                           ",
"                          .OO##$$ooX.                           ",
"                          .OO##$$ooX.                           ",
"                          .OO##$$ooX.                           ",
"                          .OO##$$ooX.                           ",
"                          .OO##$$ooX.                           ",
"                     ..  ..OO##$$ooX.   ..                      ",
"                     .#. .OOO##$$ooX+. .#.                      ",
"                     .oO.OoOO##$$ooo++.+o.                      ",
"                     .oooooOO##$$oooooooo.                      ",
"                     ......OO##$$ooo......                      ",
"                          .OO##$$ooX.                           ",
"                     ......OO##$$ooX......                      ",
"                     .#oooOOO##$$ooX#+++#.                      ",
"                     .oO.OoOO##$$oooo#.#+.                      ",
"                     .o. .oOO##$$ooXoo..+.                      ",
"                      .   .OO##$$ooX... .                       ",
"                          .OO##$$ooX.                           ",
"                          .OO##$$ooo.                           ",
"                           .........                            ",
"                                                                "
};
