/* XPM */
static char *_a7de31334714c448d4b2fcabc40e076gkgxjFS8RmXlhgTq[] = {
/* columns rows colors chars-per-pixel */
"64 64 7 1 ",
"  c black",
". c #303030",
"X c #987A33",
"o c #D29754",
"O c #E9A854",
"+ c #FEBF5B",
"@ c #F4E3AE",
/* pixels */
"                                                                ",
"                                                                ",
"                                                                ",
"                                                                ",
"                                                                ",
"                                                                ",
"                                                                ",
"                                                                ",
"                                                                ",
"                                                                ",
"                                                                ",
"                                                                ",
"                                                                ",
"                                                                ",
"                                                                ",
"                                                                ",
"                                                                ",
"                                                                ",
"                                                                ",
"                                                                ",
"                                                                ",
"                                                                ",
"                                                                ",
"                                                                ",
"                                                                ",
"                                                                ",
"                                                                ",
"                                                                ",
"                                                                ",
"                                                                ",
"                                                                ",
"                                                                ",
"                                                                ",
"               XXXXXXXXXXXXXXXXXXXXXXXXXXXXXXXXX                ",
"              XX+++++++++++++++++++++++++++++++XX               ",
"             X+X@@@@@@@@@@@@@@@@@@@@@@@@@@@@@@@X+X              ",
"              XXOOOOOOOOOOOOOOOOOOOOOOOOOOOOOOOXX               ",
"               XXXXXXXXXXXXXXXXXXXXXXXXXXXXXXXXX                ",
"               XoooooooooooooooooooooooooooooooX                ",
"               XO+@@@@@@@@@@@@@@@@@@@@@@@@@@@+OX                ",
"                XO+@@@@@@@@@@@@@@@@@@@@@@@@@+OX                 ",
"                XO+@@@@@@@@@@@@@@@@@@@@@@@@@+OX                 ",
"               XO+@@@@......@@@@...@@@...@@@@+OX                ",
"               XO+@@@@@@@@@@@@@@@@@@@@@@@@@@@+OX                ",
"               XO+@@@@@@@@@@@@@@@@@@@@@@@@@@@+OX                ",
"                XO+@@@.........@.....@@@@@@@+OX                 ",
"                XO+@@@@@@@@@@@@@@@@@@@@@@@@@+OX                 ",
"               XO+@@@@@@@@@@@@@@@@@@@@@@@@@@@+OX                ",
"               XO+@@@@.......@@@@.........@@@+OX                ",
"               XO+@@@@@@@@@@@@@@@@@@@@@@@@@@@+OX                ",
"                XO+@@@@@@@@@@@@@@@@@@@@@@@@@+OX                 ",
"                XO+@@@.........@@.....@....@+OX                 ",
"               XO+@@@@@@@@@@@@@@@@@@@@@@@@@@@+OX                ",
"               XO+@@@@@@@@@@@@@@@@@@@@@@@@@@@+OX                ",
"               XO+@@@@...@@...@@....@@...@@@@+OX                ",
"                XO+@@@@@@@@@@@@@@@@@@@@@@@@@+OX                 ",
"                XO+@@@@@@@@@@@@@@@@@@@@@@@@@+OX                 ",
"               XO+@@@@@@@@@@@@@@@@@@@@@@@@@@@+OX                ",
"               XO+@@@@@@@@@@@@@@@@@@@@@@@@@@@+OX                ",
"               XXXXXXXXXXXXXXXXXXXXXXXXXXXXXXXXX                ",
"              XX+++++++++++++++++++++++++++++++XX               ",
"             X+X@@@@@@@@@@@@@@@@@@@@@@@@@@@@@@@X+X              ",
"              XXoooooooooooooooooooooooooooooooXX               ",
"               XXXXXXXXXXXXXXXXXXXXXXXXXXXXXXXXX                "
};
