/* XPM */
static char *_0a5153f7dd5491ec0d4ddea417ef4c2Edr0MNgueIFfILlr[] = {
/* columns rows colors chars-per-pixel */
"64 64 202 2 ",
"   c #3F0D06",
".  c #351216",
"X  c #3E1415",
"o  c #3F1B1B",
"O  c #391F22",
"+  c #3E2123",
"@  c #3C292B",
"#  c #440E0C",
"$  c #4C170F",
"%  c #42130B",
"&  c #5B1B0F",
"*  c #451415",
"=  c #401A17",
"-  c #4C1B16",
";  c #46151B",
":  c #431D1A",
">  c #4B1D1C",
",  c #551B15",
"<  c #5B1E16",
"1  c #531E1B",
"2  c #591D1A",
"3  c #61190D",
"4  c #611D1A",
"5  c #4D2116",
"6  c #44231E",
"7  c #4B221C",
"8  c #4D291D",
"9  c #542115",
"0  c #54221D",
"q  c #5C231D",
"w  c #512A1B",
"e  c #5B2A1C",
"r  c #55301E",
"t  c #602110",
"y  c #6C2717",
"u  c #622814",
"i  c #63241C",
"p  c #6A251A",
"a  c #65291E",
"s  c #6A2A1E",
"d  c #722B1D",
"f  c #7C2F1F",
"g  c #6B311F",
"h  c #7A311E",
"j  c #411C23",
"k  c #4D1F21",
"l  c #511F21",
"z  c #4D2323",
"x  c #432229",
"c  c #4C2428",
"v  c #4B2A2E",
"b  c #552423",
"n  c #5C2523",
"m  c #542A24",
"M  c #5D2A24",
"N  c #542529",
"B  c #5C2429",
"V  c #542A2C",
"C  c #5D2C2C",
"Z  c #5C312A",
"A  c #5C382A",
"S  c #4A2A37",
"D  c #522E30",
"F  c #5D2D31",
"G  c #592E38",
"H  c #5D3231",
"J  c #533638",
"K  c #593539",
"L  c #632622",
"P  c #6A2223",
"I  c #642B24",
"U  c #6B2D24",
"Y  c #612328",
"T  c #632D2A",
"R  c #6A2E2A",
"E  c #732E23",
"W  c #7A2D22",
"Q  c #732E2A",
"!  c #742624",
"~  c #643126",
"^  c #6C3125",
"/  c #65322C",
"(  c #6C322C",
")  c #6E392F",
"_  c #743226",
"`  c #7B3425",
"'  c #753826",
"]  c #7E3A27",
"[  c #73342B",
"{  c #7B362B",
"}  c #75392E",
"|  c #7C3A2D",
" . c #642E31",
".. c #692D32",
"X. c #643332",
"o. c #6C3432",
"O. c #6D3934",
"+. c #6C3B3A",
"@. c #733632",
"#. c #7B3532",
"$. c #743A33",
"%. c #7C3C33",
"&. c #793739",
"*. c #743C3A",
"=. c #7B3D39",
"-. c #7D412F",
";. c #724035",
":. c #7D4135",
">. c #7E4937",
",. c #74413A",
"<. c #7D423B",
"1. c #7A4A3E",
"2. c #754440",
"3. c #7C4242",
"4. c #7D4840",
"5. c #82311E",
"6. c #89371F",
"7. c #813525",
"8. c #843A26",
"9. c #8B3C26",
"0. c #82362B",
"q. c #833B2C",
"w. c #8A3E2C",
"e. c #913F27",
"r. c #913E2D",
"t. c #833634",
"y. c #8C3730",
"u. c #833E32",
"i. c #893E31",
"p. c #86373A",
"a. c #843D3B",
"s. c #8C3F39",
"d. c #923E32",
"f. c #923D38",
"g. c #8D4026",
"h. c #86412E",
"j. c #8D412E",
"k. c #93442E",
"l. c #974A2F",
"z. c #854134",
"x. c #8B4333",
"c. c #844937",
"v. c #84443A",
"b. c #8B453A",
"n. c #85493B",
"m. c #8C493B",
"M. c #934533",
"N. c #9A4533",
"B. c #974933",
"V. c #974A30",
"C. c #934835",
"Z. c #954834",
"A. c #954836",
"S. c #964A36",
"D. c #954935",
"F. c #994B35",
"G. c #9A4935",
"H. c #9A4C36",
"J. c #9A4D36",
"K. c #9E4D36",
"L. c #9B4B35",
"P. c #92423B",
"I. c #93463A",
"U. c #98463B",
"Y. c #964B38",
"T. c #934C3A",
"R. c #934B3F",
"E. c #964D3D",
"W. c #934A3B",
"Q. c #984938",
"!. c #9A4D3A",
"~. c #9D4F38",
"^. c #9A4D3B",
"/. c #9A5037",
"(. c #9E5039",
"). c #9D513C",
"_. c #A24D32",
"`. c #A14D3B",
"'. c #A1513A",
"]. c #A15438",
"[. c #A3523C",
"{. c #AC563D",
"}. c #834541",
"|. c #8B4643",
" X c #864A43",
".X c #8D4C42",
"XX c #934D41",
"oX c #9B4D42",
"OX c #88534F",
"+X c #935145",
"@X c #9D5243",
"#X c #93544A",
"$X c #9A5448",
"%X c #9E5A4F",
"&X c #A25344",
"*X c #A85742",
"=X c #A65844",
"-X c #AC5B45",
";X c #A2554C",
":X c #AB564F",
">X c #A5594A",
",X c #AE5C4A",
/* pixels */
"i.q._ ^ :.z.,XN.^ | i.M.M.d.x.h.].V.V.j.^.M.A.A.6.9.].]./.l.(.F.b.8.H.V.=Xx.0.%.z._ ` ^.F.5.{ |.[ E x.q.L #.R { %.Q $.[ [ [ T 0 ",
"q.x.{ q.x.R.Y.f U u.m.M.w.w.M.^.k.k.H.A.C.w.h.j.`.L.[.B.L.j.H.V.q.7.H.k.M.` | u._ q.x.` U.w.u.R q %.| %.L T @.E a.t R @.:.} ( <.",
"-.] W P.P.s.s a u.#.0.h.x.A.A.M.l.V.V.A.w.w.j.A.[.K.'.B.k.j.S.S.' 0.^.h.j.7.x.b.] +X| 7.M.@XQ R %.| 0.} ( =.R Q P._ $.L [ U q ( ",
"c.| | b.b.| s v.0.i.x.x.j.M.U.N.(.H.w.M.w.A.C.^.H.k.N.l.j.k.D.k.| q.E.j.M.M.x.x.E.m.p R.^.i.i O.n.U Q s o.*.Y %.| u.=.U { #.( T ",
"q.x.z.^ } | #.b.b.x.h.h.x.M.k.k.k.M.w.M.M.~.M.M.H.k.M.U.k.k.C.h.z.x.@Xx.M.M.x.0.A._ y a.;X3 [ @.( { E [ o.n ( b.! { R R v.[ $.o.",
"t.| ' g -.} u.t.b.0.W ` j.(.G.w.j.j.j.x.w.M.U.F.A.M.k.^.N.M.x.C.q.x.).x.w.x.i.x.h.' d u.P.d n.@.{ %.z.{ o.R [ 0.{ %.R I [ L R 1 ",
"u.] _ b.m.0.z.u.W ] i.r.r.k.B.F.M.M.M.i.M.M.U.l.M.j.j.`.M.I.x.x.h.j.C.q.q.C.x.x.g.m.` a.i.^.z.%.x.h b.I R &.I f u.@.*.M R $.o.b ",
"I $.{ oXw.8.x.' } z.U.`.`.F.M.w.M.x.M.M.&XoXB.7.j.h.k.&XN.f.8.0.V.k.q.w.x.P.q.W b.x.u.[ U.@Xh | z.` ] { @.R b.i.m., ( T ^ ( q X.",
"s a.b.XX` s.t.{ b.z.H.K.`.U.k.H.` E.b.z.q.j.~.i.9.w.A.[.F.k.Q.[.h.x.C.h.w.i.i.i.).h.q.u.a._ | ` | { %.Q } @.v.@.[ [ R o.R T @.R ",
"i.| x.0.{ { b.u.0.8.K.`.U.M.j.M.b.W.8.h w.Y.M.e.H.H.K.U.w.w.M.j.x.M.C.x.h.i.x.q.M.q.q._ a.b.x.d | _ a i s @.[ P U L %.T *.q =.Q ",
"M.q.W XXW u.[ [ { w.(.~.M.M.q.x.8.q.` 7.).,XL.k.H.L.B.k.w.M.M.i.j.M.M.h.w.w.i.w.9.x.R.E } | XXb.} x.z.n.%.v.[ U } @.@.o.T T ( R ",
"@X0.` u.[ } a.%.w.M.K.H.P.x.x.h.h.C.H.M.-X-Xk._.V.l.l.M.M.Y.W.x.h.j.M.j.j.w.x.x./.q.i.E x.} m.x.s %.u.#.E [ [ @.%.@.I o.n o.( ( ",
"C.0.| %.} u.b.u.A.A.M.M.M.b.b.h.M././.k.`._.k.{.[.B.k.F.M.x.i.0.k.j.x.M.x.j.x.M.b.8.0.] XX} { _ { } 0._ i.v.=.%.U i R n R R $.@.",
"7.i.{ n._ n.{ _ M.k.8.8.y.y.b.h.k.L.M.r.`.[.L.{.'.k.k.M.j.w.i.x.b.x.h.x.x.x.x.x.7.x.x.] z.| ` { %.z.q.` m.z.} L E U %.@.R R ( [ ",
"x.z.%.L } { q.q.x.x.8.q.i.0.M.V.l./.G.G.'.`.A.w.j.j.M.x.h.w.M.E.x.h.q.i.q.0.q.q.x.P.` _ q.m.} { v.m.z.` 0.| [ ( z.z.%.n.a %.s [ ",
"| x.Q %.} m.| M.x.b.x.C.s.{ M.K.g.`.L.`.~.F./.h.j.E.).^.j.j.M.k.j.h.q.z.z.i.u.u.7.W.h.z.q.z.` a.U z.| 8.w.a.R R x.{ { [ [ v.u.%.",
"{ U.:.d q.} y.m.h /.^.j.M.8.[.`.k.[.(.M.B.F.M.Q.`.].w.q.q.w.[.L.j.9.V.x.w.8.m.0.E.q.0.8.x.m.0.x.a ;.W._ [ R X.T U %.I ) ~ I I &.",
"z.W.^ E b..X0.q.w.).w.h.A.F.`.l.V.H.k.w.V.M.k.M.k.M.x.x.h.x.M.r.h.M.w.x.q.x.z.q.z.i.h.0.q.0.] q.I ( 8.' ( [ Z R  XI T *.n T $.I ",
"@Xt y %.%.W h.x.S./.d 8.M.Q.U.K.V.k.j.k.V.M.w.M.B.M./.b.z.C.M.k.^.j.x.).0.W.W.i._ u.0.z.x.z.b.m.( ) 0.| _ @.C R T # X.X.1 T <.R ",
"x.a I.n.a y.c.i.M.M.d x.E.w.9.[.j.C.A.F.F.M.M.U.M.w.i.0.` w.x.w.h.x.b.` W.x.0.z.i.z.[ u.b.} 0.} R $.s.0.R #.e [ 2 T OXT n o.[ [ ",
"{ >.b.n.' :Xu w.h.h.q.b.@X8.w.~.M.A.H.A.M.Y.Q.M.x.^.x.I.M.M.@XM.x.` m.x.x.q.x.7.m.x.E %.v.{ { 0.R $.f.| _ a.~ $.} v. X, T v.U { ",
"| _ { _ .Xi.y ^.j.z.b.h.R.x.M.M.^.C.j.9.w.^.^.i.j.P.7.w.i.w.@Xj.] x.x.w.b.W.W b.b.q.{ u.b.| q.^.a.$.M.| $.}.m T ` s [ q I v.[ { ",
"} a.%.p x._ ;X^.T.q.q.z.i.q.M.M./.x.h.j.i.Y.Y.w.).^.9.j.j.A.&XA.| _ z.x.{ x.` x.x.q.u.} | { ] j.v.' y._ O.R : C } U $.X.M o.Y R ",
"p ;X9 { R._ d.C.x.d | $Xz.0.` M.H.j.M.^.P.M.M.i.V.h.j.j.k.^.j.7.h.q.T.| W.x.0.).j.w.i._ } W.x.M..Xg r.] ;.R 6 +.} $.o.n k X.N F ",
"o.T $.%.%.%.W W 0.z.z.] M.M.U.j.i.x.^ z.E.j.f XX0.x.w.b.8.x.{ u.z.] q.] b.h b.n.x.z.%.s { ^.j.h.( p h.a.X.1 T %.o.( ^ L [ @.L R ",
"=.%.} a u.| q.$Xq.v._ } W G.F.^.k.E.x.x.r.`.M.w.h.x.q.C.q.W.i.M.b.x.b.x.T.] x.q.q.| ' } z.@XC.j.$.` x.v.( T R } ( ( %.U [ $.I &.",
"< } i u.[ i.` b.} ' ] { M.`.].l._.l.j.V.e.L.M.8.C.C.w.W.q.W.q.0.x.C.q.q.q.{ q.q.b.h.-.| x.R.w.w.v.m.E.x.&.o.R } %.} ` I } 3.R o.",
"{ Q a.u.0._ @Xx.E } .Xx.~.N._._._.k.w.x.k.k.M.i.q.h.0.b.q.b.i.0.S.x.8.h.w.h.x.P.0.| -.h.P.Y.x.h.` | ` s } R L ( E } { { n.=.R 1 ",
"{ { v.| E d XX_ v.v.} x.w.`._.L.l.Q.z.0.x.A.x.%.x.x.x.x.i.i.i.i.x.h.8.T.x.x.` x.d | | ] q.w.0.| x.i.%.U v._ ^ $.Q XX| | #.L o.n ",
"Q XXu.R.{ b._ Q u.{ s _ M.oX/.k.M.b.z.} x.x.| #.M.b.x.x.q.q.x.P.q.` ' x.q.z.` z.z.R.T.m.M.x.x.-.x.} [ a %._ M / } XX[ U U q @.T ",
"_ | | s #.[ I Q U U %.{ x.y.A.l.x.{ %.| z.8.s.%.8.q.q.8.i.x.R.XX| | h.%.| v.u.b.` q.] h.x.0.q.:.] $.~ o.} m.( O.i $.( U %.$.R n ",
"i._ %.#.$.%.@.%.b.%.^ u.b.oXx.` ] ` m.| 7.V.>X` x.j.h.h.x.w.q.7.' | m.| | z._ _ b.x.| b.Y.8.| %.8.v.X.@.s v.q z C o.$.i R a.@.&.",
"Z u.R.' a.X.n [ $.%.` M.-Xx.` z.x.h.x.` x.m.E %.:.| z.v.h.| 0.x.h.x.h.| q.b.i.i.b.q.z.' ' %.U v.{ i.} } %.%.[ [ { } } a v.} ( / ",
"/ ! | } P $.) s.( U d Q.*Xj.| m.q.x.` ` z.q.u.u.| z.q.' | T.b.| ] | ` | x.| 0.q.q.] z.-.u.a._ %.u.} u.Q u.[ =.[ { %.$.%.{ _ ( 0 ",
"$.0.z.:.R #.L ! $.} W Q.F.M.h.{ 0.z.0.x.Y.m.b.:.q.{ | x.b.q.| w.q.b.x.z.XX| b.| i.| z.| i.a.E [ u._ u.^ [ L %.U Q %.T %.U } ( C ",
"_ s.' e #.[ U oX*.U | Q.w.Y.q._ | s z.x.i.m.` { | z.x.q.h.h.z.` ` T.x.q.u.0.z.} x.q.u.{ | s.` } v.u.z.z.} @.%.( ^ n., L %.@.I 2.",
"a x.I e u.Q } oX( < b.Y.8.^.w.W.b.U i.| ` h.} { x.q.0._ z.x.m.| W P.| i._ z.:.| i.| ] ` u.b.a.z._ | _ Q _ [ ( [ %.n.q I v.U 1  .",
"} |.^ 1.{ 7.^ { i U %X0.` ^.x.M.v.u.| x.z.q.x.%.w.` 0.| m.q.z.i.z.b.{ n.{ b._ z.u.h.} } s.b.i.%.u.u.%.s v.$.$.%.%.L I ( <.R b k ",
":.u.n O.W I.~ =.L %.#XW q.^.M.8.%.} | b.x.q.z.%.` x.@X] x.i.b._ z.| ] z.` a.p u.z.:.} %.s.q.| ] u.{ | s %.Q } ^ [ 4 @.o.( T b c ",
"e Y b 1 f.&X9 3.[ R U d >XM.V.M.%.U | { | z.` x.oXx.x.` b.q.b.a.] ^ q.} | XXQ b.| [ ^ _ 0.` ` | %.[ { %.} %.%.R i.=.}.I I / > K ",
"M ^ R $.,.> % ;.C a _ | b.w.u.#.{ 0.q.{ 0.i.| u.[ [ } { x.q.} { ^ [ v.z.a.{ z.u.} U q.| _ m..X%.^ @.#.[ Q [ ( @.#.~ w 5 ,.B c @ ",
"@.I @.[ X.* ) v.~ :.v.] 0.W ` u.-.` | z.b.u.U ^ [ %.a.` z.| z.u.$.} } { | | | E | z.h.E E | _ I I [ %.Q [ $.$.^ { $.M +.I B V O ",
"T U Q R o.n [ L 1 ( %.{ XXx.%.a.%.( { | u.%.| v.$.| z.E q.| b.| U } 0.q.0.x.x.a.} c.%.s i.v.R [ U %.u.{ [ %.} U a.I ^ T l 3.; . ",
"*.i U @.1 *.<.s @.[ } { b.0.[ %.U _ n.a.#.{ } %.%._ z.d u.} b.} ] z.z.T.8.z.i.x.[ z.v.q.XX.X} %.] z.v.{ { } %.( a.R 4., ..*.* D ",
"/ ( ( Y T *.i :.^ R $.} { | v.u.U [ a.%.Q Q _ _ q._ | } a.| a.{ z.%.{ m.w.q.` { } } :.z.z.} U %.} %.u.} } { %.#.( } ( > +.> V V ",
"Z - I M T X.I _ o.[ v.{ Q %.z.& %.I ( } E } } v.] _ %.:.| [ 0.{ _ Q ] b.z.0.| u.%.U _ { _ U U $.#.u.%.%.} } [ [ } q m b F : V : ",
"X.~ q 2 @...( i.( ^ [ i U z.m.^ <.T } v.u.q.| _ | ' } u.Q } u.{ ^ } b.x.0.{ u.z._ ^ _ } _ } } =.%.%.%._ _ $.} U } M 3.X.z z z H ",
"m $.P |.R R %.{ L R #.[ %.} } _ ( s #.{ [ z.m.x.x.0.} } s a.b.{ ( } v.| } 0.z.{ ( %.<.| z.v.Q R [ } ^ I T =.=.( } $.R l X.> b o.",
"O.I ~ %.Q { U %.@.@.q :.} { _ [ Q [ 0.x.d u.R I I :._ _ q.m.z.%.u.z.%.} _ [ %.a.-.h.} } [ _ [ %.Q v.%.U #.| [ }  .~ p $.+ + T R ",
"M M <.R @.[ $.R R ( ( :.U %.%.%.} Q %.R.| b.} %.R :._ d m.{ _ %.Q 0.} } } [ } U y s [ [ ( U [ | %.[ a :.%.%.I [ o.) U [ K v ..U ",
"9 T @.o.n R R Y ( $.q ( L i n.L %.} } b.| u.^ %.} } %.| u.U %.} u.%.[ _ [ [ %.[ z.{ [ [ [ %.b.v.^ [ ^ <.< a.&.M U ^ _ o.v j B U ",
"R / ( O.n T I  .T 9 @.*.<.<.q R @.[ { z.{ u.@.<._ z.} :.R %.%.&.u.%.U [ } $.u.%.u.[ } =.u.n.v.P } _ T ,.2 o.~ ~ Q $.} =.o c B ( ",
"O.T o.C / n *.O.^ ( *.T O...q .XR } _ { Q [ } %.s #X[ a $.$.L =.R _ ( %.%.[ } R _ _ u.<.[ [ %.E Q <.) q n }.*.b u.^ R *.X C o. .",
"T T n n n T ( q i #Xq R O., R U ( %._ [ _ U Q ( _ :.^ q =.L a } R _ [ $.{ [ [ [ z.} } ( a U { [ } R I ~ <.[ R O.#.b  .T = m &.T ",
"T C - T q ( T i ] n., q I @.a.:.[ %.Q } %.} a.z.$.I ( o.( i #.[ ( @.Q } [ Q %.$.$._ [ ( ( ( U L L ( o.I [ [ [ } [ Z O.C z / #.o.",
"o.B b o.<.( v.z.| %., 3.( L %.[ [ } i ( %.U Q [ I ( T *.T } <.| T R R [ } [ } [ ' } } [ $.( } n.@.T C I [ %.u._ R H c b m ,.< n ",
"C Y U R.{ ( X.N A / 2 R R =.e m ~ R #.E %.q *.Q ^ [ I [ [ z.^ q { [ a.| 0.[ u._ ( ( ( ^ ^ =.<._ T ( #.[ [ $._ [ R $./ o.N * N F ",
"( T R O.1 q ( R i O.b X.T / $.U O.%.#.v.%.~ ^ [ $.%.} ^ @.} ( T _ U } } $.[ [ q ( ^ ( _ ^ R U R _ $.%.[ [ @.^ ( R R 0 C X.N F b ",
"{ ^ X.V l Y =.` #.R T  .7 o.|.! $ ( %.} ~ ( ;.[ R T L R R R o.$.( ~ ^ I ( ~ ) ~ ( $.[ } @.R R $.^ @.$.U R } R ( ( R b O.O.b T T ",
"m > n C ( R a.! T n *.I o.<.i q q $.$.a R I :.R ( ^ R @.R ( ( ( ( ~ R T ~ ( O.) ( $.( T ( $.[ @.R ( @.R R [ R ( ( O.( o.T b T @.",
"c ; I } i.[ O.T 7 / / 1 @./   +.<.( I I $.I ^ I o.T ( o.( T R ( I o.@.#.@.@.R R ( ( I q ^ [ R I ( _ $.^ ( o.I T T ^ I b I / o.I ",
"S D ( w.9.U ..G T / > 7 8 0 ( }.} ( e O.R [ R ( ( 1 ( q ( q @.T L ( [ @.[ [ R R o.I n ^ *.$.T R [ ( ( / ( ~ n T } T M T o./ T M ",
"N C R } U n B C ..b 1 ,.m ~ 2.n _ <./ ,.Q #.{ [ *./ o.X.C M o.T I o.T R R [ R #.^ I ^ *.*.@.[ @.( ^ ^ T T / I / $.^ ~ +.+.B b / ",
"q R B o.C X./ M o C R p.Q &.0 z } L 5 R =.t.#.[ T R b *.- ( C R ~ $.R ^ ^ [ R ( b R *.@.L n R R } ( ( T / X.T o.T ^ / b b H Z N "
};
